<svg width="30" height="45" viewBox="0 0 30 45" fill="none" xmlns="http://www.w3.org/2000/svg">
  <path d="M15.3163 44.5571L3.92763 16.2449L26.705 16.2449L15.3163 44.5571Z" fill="#FAFF00"/>
  <path d="M18.875 16.3995C18.875 15.3742 19.7062 14.543 20.7315 14.543H26.3012C27.3265 14.543 28.1577 15.3742 28.1577 16.3995V21.0409C28.1577 23.0915 26.4953 24.7539 24.4446 24.7539H22.5881C20.5374 24.7539 18.875 23.0915 18.875 21.0409V16.3995Z" fill="#FFBB6B"/>
  <line x1="21.4381" y1="21.5977" x2="21.4381" y2="24.7538" stroke="black" stroke-width="0.3"/>
  <line x1="23.6666" y1="21.5977" x2="23.6666" y2="24.7538" stroke="black" stroke-width="0.3"/>
  <line x1="25.8941" y1="21.5977" x2="25.8941" y2="24.7538" stroke="black" stroke-width="0.3"/>
  <path d="M2.16602 16.3995C2.16602 15.3742 2.99722 14.543 4.02256 14.543H9.59218C10.6175 14.543 11.4487 15.3742 11.4487 16.3995V21.0409C11.4487 23.0915 9.78632 24.7539 7.73564 24.7539H5.8791C3.82842 24.7539 2.16602 23.0915 2.16602 21.0409V16.3995Z" fill="#FFBB6B"/>
  <line x1="4.7291" y1="21.5977" x2="4.7291" y2="24.7538" stroke="black" stroke-width="0.3"/>
  <line x1="6.95762" y1="21.5977" x2="6.95762" y2="24.7538" stroke="black" stroke-width="0.3"/>
  <line x1="9.18516" y1="21.5977" x2="9.18516" y2="24.7538" stroke="black" stroke-width="0.3"/>
  <rect x="19.4941" y="3.24902" width="5.87905" height="10.8298" rx="2.93952" transform="rotate(-30 19.4941 3.24902)" fill="#A26C2E"/>
  <rect x="5.41504" y="0.30957" width="5.87905" height="10.8298" rx="2.93952" transform="rotate(30 5.41504 0.30957)" fill="#A26C2E"/>
  <path d="M25.0633 10.0563C25.0633 14.9266 21.1267 17.6371 15.3164 17.6371C9.50619 17.6371 5.10547 14.9266 5.10547 10.0563C5.10547 5.1859 9.50619 0 15.3164 0C21.1267 0 25.0633 5.1859 25.0633 10.0563Z" fill="#FFBB6B"/>
  <rect x="9.5918" y="6.80713" width="1.54712" height="1.54712" rx="0.773559" fill="black"/>
  <rect x="19.1846" y="6.80713" width="1.54712" height="1.54712" rx="0.773559" fill="black"/>
  <ellipse cx="15.3169" cy="12.8409" rx="2.01125" ry="0.773559" fill="black"/>
  <path d="M15.2998 13V15.5" stroke="black" stroke-width="0.3"/>
</svg>
