<svg width="current" height="current" viewBox="0 0 20 17" fill="none" xmlns="http://www.w3.org/2000/svg">
  <path d="M0.730702 7.38139C1.53649 4.96403 3.79873 3.3335 6.34686 3.3335H14.0551C16.486 3.3335 18.672 4.81348 19.5748 7.0705V7.0705C19.8557 7.77271 20 8.52207 20 9.27838V9.52871C20 13.5299 16.7564 16.7735 12.7552 16.7735H7.68034C3.50933 16.7735 0.194663 13.2696 0.426029 9.10498L0.436024 8.92506C0.465211 8.3997 0.56431 7.88057 0.730702 7.38139V7.38139Z" fill="#FFBB6B"/>
  <path d="M17.4102 0.978184L18.1446 5.56829L13.3333 3.81715L17.4102 0.978184Z" fill="#FFBB6B"/>
  <path d="M3.35453 0.773281L6.86755 3.81747L2.05632 5.56861L3.35453 0.773281Z" fill="#FFBB6B"/>
  <path d="M9 3.3335H11.24V6.3735C11.24 6.99206 10.7386 7.4935 10.12 7.4935V7.4935C9.50144 7.4935 9 6.99205 9 6.3735V3.3335Z" fill="#EEEEEE"/>
  <ellipse cx="10.0795" cy="11.9733" rx="1.6" ry="0.8" fill="black"/>
  <ellipse cx="5.76027" cy="8.45314" rx="0.48" ry="0.48" fill="black"/>
  <ellipse cx="14.7202" cy="8.45314" rx="0.48" ry="0.48" fill="black"/>
  <path d="M9.44043 14.5026C9.44043 14.2886 9.54737 14.0888 9.72542 13.9701V13.9701C9.9404 13.8268 10.2205 13.8268 10.4354 13.9701V13.9701C10.6135 14.0888 10.7204 14.2886 10.7204 14.5026V15.0134C10.7204 15.3669 10.4339 15.6534 10.0804 15.6534V15.6534V15.6534C9.72697 15.6534 9.44043 15.3669 9.44043 15.0134V14.5026Z" fill="#D13C3C"/>
  <path d="M7.83984 13.7334L8.12844 14.0426C8.70474 14.6601 9.72267 14.4988 10.0798 13.7334V13.7334" stroke="black" stroke-width="0.7"/>
  <path d="M10 13.7334V13.7334C10.3616 14.5082 11.3852 14.6841 11.9847 14.0745L12.3202 13.7334" stroke="black" stroke-width="0.7"/>
  <path d="M10 12.5L10.0166 13.7334" stroke="black" stroke-width="0.7"/>
</svg>
